<svg xmlns="http://www.w3.org/2000/svg" xmlns:xlink="http://www.w3.org/1999/xlink" version="1.1" width="40" height="40" viewBox="0 0 40 40" xml:space="preserve">
  <g transform="matrix(1.1150163148 0 0 1.1150163803 20 20)" id="aZZFmhULM2qQQ8JJZBu1M">
    <path style="stroke: rgb(214,206,22); stroke-width: 0; stroke-dasharray: none; stroke-linecap: butt; stroke-dashoffset: 0; stroke-linejoin: miter; stroke-miterlimit: 4; fill: rgb(245,245,250); fill-rule: nonzero; opacity: 1;" transform=" translate(0, 0)" d="M -17.93696 -10.32695 C -17.93696 -14.52984 -14.52984 -17.93696 -10.32695 -17.93696 L 10.32695 -17.93696 L 10.32695 -17.93696 C 14.52984 -17.93696 17.93696 -14.52984 17.93696 -10.32695 L 17.93696 10.32695 L 17.93696 10.32695 C 17.93696 14.52984 14.52984 17.93696 10.32695 17.93696 L -10.32695 17.93696 L -10.32695 17.93696 C -14.52984 17.93696 -17.93696 14.52984 -17.93696 10.32695 z" stroke-linecap="round" />
  </g>
  <g transform="matrix(1 0 0 1 20 20)" id="oGaZmyInvmDjsIwapV0qG">
    <g style="">
      <g transform="matrix(1.6666666667 0 0 1.6666666667 0 0)" id="MTuzIFHr6gV5bWoHEAwkg">
        <path style="stroke: none; stroke-width: 2; stroke-dasharray: none; stroke-linecap: round; stroke-dashoffset: 0; stroke-linejoin: round; stroke-miterlimit: 4; fill: none; fill-rule: nonzero; opacity: 1;" transform=" translate(-12, -12)" d="M 0 0 L 24 0 L 24 24 L 0 24 z" stroke-linecap="round" />
      </g>
      <g transform="matrix(1.6666666667 0 0 1.6666666667 5.8333333333 8.3333333333)" id="6ZIYtdBhuO5EqzcgVxGQO">
        <path style="stroke: rgb(112,112,112); stroke-width: 2; stroke-dasharray: none; stroke-linecap: round; stroke-dashoffset: 0; stroke-linejoin: round; stroke-miterlimit: 4; fill: none; fill-rule: nonzero; opacity: 1;" transform=" translate(-15.5, -17)" d="M 15.5 13 C 13.567003375592222 13 12 14.567003375592222 12 16.5 L 12 17.5 C 12 19.432996624407778 13.567003375592222 21 15.5 21 C 17.432996624407778 21 19 19.432996624407778 19 17.5 L 19 15.7" stroke-linecap="round" />
      </g>
      <g transform="matrix(1.6666666667 0 0 1.6666666667 -5.8333333333 8.3333333333)" id="FeDF05huE59e_VEUC3nWV">
        <path style="stroke: rgb(112,112,112); stroke-width: 2; stroke-dasharray: none; stroke-linecap: round; stroke-dashoffset: 0; stroke-linejoin: round; stroke-miterlimit: 4; fill: none; fill-rule: nonzero; opacity: 1;" transform=" translate(-8.5, -17)" d="M 8.5 13 C 10.432996624407778 13 12 14.567003375592222 12 16.5 L 12 17.5 C 12 19.432996624407778 10.432996624407778 21 8.5 21 C 6.567003375592223 21 5 19.432996624407778 5 17.5 L 5 15.7" stroke-linecap="round" />
      </g>
      <g transform="matrix(1.6666666667 0 0 1.6666666667 11.6666666667 0.8333333333)" id="bREEr2iMAZdV_zJo7hjCU">
        <path style="stroke: rgb(112,112,112); stroke-width: 2; stroke-dasharray: none; stroke-linecap: round; stroke-dashoffset: 0; stroke-linejoin: round; stroke-miterlimit: 4; fill: none; fill-rule: nonzero; opacity: 1;" transform=" translate(-19, -12.5)" d="M 17.5 16 C 19.432996624407778 16 21 14.432996624407778 21 12.5 C 21 10.567003375592222 19.432996624407778 9 17.5 9 L 17 9" stroke-linecap="round" />
      </g>
      <g transform="matrix(1.6666666667 0 0 1.6666666667 5.8333333333 -9.75)" id="pIHTnt1SXOEtfX3uJIl_g">
        <path style="stroke: rgb(112,112,112); stroke-width: 2; stroke-dasharray: none; stroke-linecap: round; stroke-dashoffset: 0; stroke-linejoin: round; stroke-miterlimit: 4; fill: none; fill-rule: nonzero; opacity: 1;" transform=" translate(-15.5, -6.15)" d="M 19 9.3 L 19 6.500000000000001 C 19 4.567003375592224 17.432996624407778 3.000000000000001 15.5 3.000000000000001 C 13.567003375592222 3.000000000000001 12 4.567003375592224 12 6.500000000000001" stroke-linecap="round" />
      </g>
      <g transform="matrix(1.6666666667 0 0 1.6666666667 -11.6666666667 0.8333333333)" id="XKhrKAO2VmVpBWN2Hs-tX">
        <path style="stroke: rgb(112,112,112); stroke-width: 2; stroke-dasharray: none; stroke-linecap: round; stroke-dashoffset: 0; stroke-linejoin: round; stroke-miterlimit: 4; fill: none; fill-rule: nonzero; opacity: 1;" transform=" translate(-5, -12.5)" d="M 6.5 16 C 4.567003375592223 16 3 14.432996624407778 3 12.5 C 3 10.567003375592222 4.567003375592223 9 6.5 9 L 7 9" stroke-linecap="round" />
      </g>
      <g transform="matrix(1.6666666667 0 0 1.6666666667 -5.8333333333 -3.75)" id="Or_yU6hC0oEVr_bqVDPaW">
        <path style="stroke: rgb(112,112,112); stroke-width: 2; stroke-dasharray: none; stroke-linecap: round; stroke-dashoffset: 0; stroke-linejoin: round; stroke-miterlimit: 4; fill: none; fill-rule: nonzero; opacity: 1;" transform=" translate(-8.5, -9.75)" d="M 5 9.3 L 5 6.500000000000001 C 5 4.567003375592224 6.567003375592223 3.000000000000001 8.5 3.000000000000001 C 10.432996624407778 3.000000000000001 12 4.567003375592223 12 6.5 L 12 16.5" stroke-linecap="round" />
      </g>
    </g>
  </g>
</svg>
